<svg xmlns="http://www.w3.org/2000/svg" width="1920" height="1080"><path d="M25,1224L-131,1237L408,1241Z" fill="#8b8794" stroke="#8b8794" stroke-width="1.51"/><path d="M408,1241L-131,1237L668,1289Z" fill="#7b8191" stroke="#7b8191" stroke-width="1.51"/><path d="M-36,-195L369,-173L884,-221Z" fill="#def2c2" stroke="#def2c2" stroke-width="1.51"/><path d="M765,1283L668,1289L1068,1303Z" fill="#3f6b8f" stroke="#3f6b8f" stroke-width="1.51"/><path d="M1536,1244L1432,1256L1673,1255Z" fill="#1c4189" stroke="#1c4189" stroke-width="1.51"/><path d="M1432,1256L1198,1295L1673,1255Z" fill="#1d498b" stroke="#1d498b" stroke-width="1.51"/><path d="M1240,-187L1406,-169L1794,-197Z" fill="#9eafbf" stroke="#9eafbf" stroke-width="1.51"/><path d="M1069,-210L1240,-187L1794,-197Z" fill="#a0bbc5" stroke="#a0bbc5" stroke-width="1.51"/><path d="M1198,1295L1068,1303L1936,1295Z" fill="#1b4a88" stroke="#1b4a88" stroke-width="1.51"/><path d="M1673,1255L1198,1295L1936,1295Z" fill="#1a3b83" stroke="#1a3b83" stroke-width="1.51"/><path d="M1069,-210L1794,-197L1951,-214Z" fill="#9da5bd" stroke="#9da5bd" stroke-width="1.51"/><path d="M884,-221L1069,-210L1951,-214Z" fill="#a2c1c9" stroke="#a2c1c9" stroke-width="1.51"/><path d="M2042,948L1931,1032L2042,1133Z" fill="#1e3787" stroke="#1e3787" stroke-width="1.51"/><path d="M2026,166L1968,260L2074,333Z" fill="#657a93" stroke="#657a93" stroke-width="1.51"/><path d="M2042,948L2042,1133L2075,864Z" fill="#1b3a84" stroke="#1b3a84" stroke-width="1.51"/><path d="M2075,864L2042,1133L2082,1261Z" fill="#1b2f7e" stroke="#1b2f7e" stroke-width="1.51"/><path d="M2026,166L2074,333L2091,39Z" fill="#6f7d8e" stroke="#6f7d8e" stroke-width="1.51"/><path d="M1886,766L2075,864L2101,716Z" fill="#215493" stroke="#215493" stroke-width="1.51"/><path d="M2054,433L2023,586L2101,716Z" fill="#2f6594" stroke="#2f6594" stroke-width="1.51"/><path d="M2074,333L2054,433L2101,716Z" fill="#396a92" stroke="#396a92" stroke-width="1.51"/><path d="M2075,864L2082,1261L2101,716Z" fill="#193c83" stroke="#193c83" stroke-width="1.51"/><path d="M2089,-188L1951,-214L2109,-87Z" fill="#8c879a" stroke="#8c879a" stroke-width="1.51"/><path d="M1951,-214L1908,-49L2109,-87Z" fill="#8f8a9c" stroke="#8f8a9c" stroke-width="1.51"/><path d="M1908,-49L2091,39L2109,-87Z" fill="#888590" stroke="#888590" stroke-width="1.51"/><path d="M2074,333L2101,716L2109,-87Z" fill="#53728d" stroke="#53728d" stroke-width="1.51"/><path d="M2091,39L2074,333L2109,-87Z" fill="#787f8b" stroke="#787f8b" stroke-width="1.51"/><path d="M2042,1133L1964,1172L2082,1261Z" fill="#172876" stroke="#172876" stroke-width="1.51"/><path d="M2023,586L1908,626L2101,716Z" fill="#2c6298" stroke="#2c6298" stroke-width="1.51"/><path d="M1908,626L1886,766L2101,716Z" fill="#285f9d" stroke="#285f9d" stroke-width="1.51"/><path d="M-36,-195L131,-175L369,-173Z" fill="#eff9bf" stroke="#eff9bf" stroke-width="1.51"/><path d="M1889,92L2026,166L2091,39Z" fill="#7e8395" stroke="#7e8395" stroke-width="1.51"/><path d="M1908,-49L1889,92L2091,39Z" fill="#878799" stroke="#878799" stroke-width="1.51"/><path d="M1925,441L2023,586L2054,433Z" fill="#3f6e9a" stroke="#3f6e9a" stroke-width="1.51"/><path d="M1944,316L2054,433L2074,333Z" fill="#507395" stroke="#507395" stroke-width="1.51"/><path d="M1886,766L1908,908L2075,864Z" fill="#224e96" stroke="#224e96" stroke-width="1.51"/><path d="M1964,1172L1936,1295L2082,1261Z" fill="#152771" stroke="#152771" stroke-width="1.51"/><path d="M1968,260L1944,316L2074,333Z" fill="#5d7897" stroke="#5d7897" stroke-width="1.51"/><path d="M1908,908L2042,948L2075,864Z" fill="#1e448d" stroke="#1e448d" stroke-width="1.51"/><path d="M1944,316L1925,441L2054,433Z" fill="#4f749a" stroke="#4f749a" stroke-width="1.51"/><path d="M1908,908L1931,1032L2042,948Z" fill="#20408f" stroke="#20408f" stroke-width="1.51"/><path d="M1931,1032L1964,1172L2042,1133Z" fill="#1e3085" stroke="#1e3085" stroke-width="1.51"/><path d="M1406,-169L1550,-140L1794,-197Z" fill="#9ca6b9" stroke="#9ca6b9" stroke-width="1.51"/><path d="M1835,1245L1673,1255L1936,1295Z" fill="#1b2d7f" stroke="#1b2d7f" stroke-width="1.51"/><path d="M1925,441L1908,626L2023,586Z" fill="#376da0" stroke="#376da0" stroke-width="1.51"/><path d="M1889,92L1968,260L2026,166Z" fill="#778299" stroke="#778299" stroke-width="1.51"/><path d="M1843,697L1886,766L1908,626Z" fill="#2e64a6" stroke="#2e64a6" stroke-width="1.51"/><path d="M1816,431L1908,626L1925,441Z" fill="#4473a6" stroke="#4473a6" stroke-width="1.51"/><path d="M1794,-197L1908,-49L1951,-214Z" fill="#978fab" stroke="#978fab" stroke-width="1.51"/><path d="M1931,1032L1849,1124L1964,1172Z" fill="#21328d" stroke="#21328d" stroke-width="1.51"/><path d="M1835,1245L1936,1295L1964,1172Z" fill="#1a2a7a" stroke="#1a2a7a" stroke-width="1.51"/><path d="M1823,242L1944,316L1968,260Z" fill="#687ea0" stroke="#687ea0" stroke-width="1.51"/><path d="M1889,92L1823,242L1968,260Z" fill="#7784a1" stroke="#7784a1" stroke-width="1.51"/><path d="M1816,431L1766,587L1908,626Z" fill="#3e73ad" stroke="#3e73ad" stroke-width="1.51"/><path d="M1849,1124L1835,1245L1964,1172Z" fill="#1f2e86" stroke="#1f2e86" stroke-width="1.51"/><path d="M229,1223L25,1224L408,1241Z" fill="#838595" stroke="#838595" stroke-width="1.51"/><path d="M1794,377L1816,431L1925,441Z" fill="#5379a9" stroke="#5379a9" stroke-width="1.51"/><path d="M1908,908L1832,913L1931,1032Z" fill="#234597" stroke="#234597" stroke-width="1.51"/><path d="M1794,377L1925,441L1944,316Z" fill="#5679a4" stroke="#5679a4" stroke-width="1.51"/><path d="M1886,766L1832,913L1908,908Z" fill="#26509e" stroke="#26509e" stroke-width="1.51"/><path d="M1832,913L1819,1041L1931,1032Z" fill="#254198" stroke="#254198" stroke-width="1.51"/><path d="M1823,242L1794,377L1944,316Z" fill="#647fa7" stroke="#647fa7" stroke-width="1.51"/><path d="M1818,82L1889,92L1908,-49Z" fill="#8c8ba3" stroke="#8c8ba3" stroke-width="1.51"/><path d="M1819,1041L1849,1124L1931,1032Z" fill="#243a94" stroke="#243a94" stroke-width="1.51"/><path d="M1818,82L1823,242L1889,92Z" fill="#848aa6" stroke="#848aa6" stroke-width="1.51"/><path d="M1794,-197L1760,-36L1908,-49Z" fill="#9992ab" stroke="#9992ab" stroke-width="1.51"/><path d="M1760,-36L1818,82L1908,-49Z" fill="#938fa7" stroke="#938fa7" stroke-width="1.51"/><path d="M1766,587L1843,697L1908,626Z" fill="#366bab" stroke="#366bab" stroke-width="1.51"/><path d="M1550,-140L1697,-144L1794,-197Z" fill="#9c9eb6" stroke="#9c9eb6" stroke-width="1.51"/><path d="M1709,843L1832,913L1886,766Z" fill="#2957a5" stroke="#2957a5" stroke-width="1.51"/><path d="M1843,697L1709,843L1886,766Z" fill="#2a60a9" stroke="#2a60a9" stroke-width="1.51"/><path d="M1697,-144L1760,-36L1794,-197Z" fill="#9a98b1" stroke="#9a98b1" stroke-width="1.51"/><path d="M1818,82L1685,127L1823,242Z" fill="#838ea9" stroke="#838ea9" stroke-width="1.51"/><path d="M1707,1026L1819,1041L1832,913Z" fill="#26469d" stroke="#26469d" stroke-width="1.51"/><path d="M1766,587L1723,698L1843,697Z" fill="#336dad" stroke="#336dad" stroke-width="1.51"/><path d="M1723,698L1709,843L1843,697Z" fill="#2a67ac" stroke="#2a67ac" stroke-width="1.51"/><path d="M1819,1041L1707,1026L1849,1124Z" fill="#263e98" stroke="#263e98" stroke-width="1.51"/><path d="M1707,1026L1653,1103L1849,1124Z" fill="#26409a" stroke="#26409a" stroke-width="1.51"/><path d="M1673,1255L1835,1245L1849,1124Z" fill="#203389" stroke="#203389" stroke-width="1.51"/><path d="M1653,1103L1673,1255L1849,1124Z" fill="#233a92" stroke="#233a92" stroke-width="1.51"/><path d="M1664,454L1766,587L1816,431Z" fill="#467daf" stroke="#467daf" stroke-width="1.51"/><path d="M1636,331L1794,377L1823,242Z" fill="#6386ab" stroke="#6386ab" stroke-width="1.51"/><path d="M1709,843L1707,1026L1832,913Z" fill="#2550a1" stroke="#2550a1" stroke-width="1.51"/><path d="M1760,-36L1685,127L1818,82Z" fill="#8d93a9" stroke="#8d93a9" stroke-width="1.51"/><path d="M1685,127L1629,237L1823,242Z" fill="#7a90ac" stroke="#7a90ac" stroke-width="1.51"/><path d="M1629,237L1636,331L1823,242Z" fill="#6d8dad" stroke="#6d8dad" stroke-width="1.51"/><path d="M1794,377L1664,454L1816,431Z" fill="#5280ad" stroke="#5280ad" stroke-width="1.51"/><path d="M1670,-47L1685,127L1760,-36Z" fill="#9298aa" stroke="#9298aa" stroke-width="1.51"/><path d="M1636,331L1664,454L1794,377Z" fill="#5786af" stroke="#5786af" stroke-width="1.51"/><path d="M1697,-144L1670,-47L1760,-36Z" fill="#999bad" stroke="#999bad" stroke-width="1.51"/><path d="M1643,592L1723,698L1766,587Z" fill="#3575b0" stroke="#3575b0" stroke-width="1.51"/><path d="M1664,454L1643,592L1766,587Z" fill="#3b7eb1" stroke="#3b7eb1" stroke-width="1.51"/><path d="M1246,1274L1198,1295L1432,1256Z" fill="#1e5490" stroke="#1e5490" stroke-width="1.51"/><path d="M1670,-47L1519,80L1685,127Z" fill="#8e9dae" stroke="#8e9dae" stroke-width="1.51"/><path d="M1531,956L1707,1026L1709,843Z" fill="#2456a4" stroke="#2456a4" stroke-width="1.51"/><path d="M1520,913L1531,956L1709,843Z" fill="#245ea8" stroke="#245ea8" stroke-width="1.51"/><path d="M1555,772L1709,843L1723,698Z" fill="#276aae" stroke="#276aae" stroke-width="1.51"/><path d="M1643,592L1555,772L1723,698Z" fill="#2c74b1" stroke="#2c74b1" stroke-width="1.51"/><path d="M1593,-83L1670,-47L1697,-144Z" fill="#999fb1" stroke="#999fb1" stroke-width="1.51"/><path d="M1555,772L1520,913L1709,843Z" fill="#2566ac" stroke="#2566ac" stroke-width="1.51"/><path d="M1574,556L1643,592L1664,454Z" fill="#3c83b3" stroke="#3c83b3" stroke-width="1.51"/><path d="M1531,956L1653,1103L1707,1026Z" fill="#264ea0" stroke="#264ea0" stroke-width="1.51"/><path d="M1653,1103L1536,1244L1673,1255Z" fill="#203f8f" stroke="#203f8f" stroke-width="1.51"/><path d="M1550,-140L1593,-83L1697,-144Z" fill="#9ba3b4" stroke="#9ba3b4" stroke-width="1.51"/><path d="M1531,956L1540,1103L1653,1103Z" fill="#254fa1" stroke="#254fa1" stroke-width="1.51"/><path d="M1540,1103L1536,1244L1653,1103Z" fill="#244699" stroke="#244699" stroke-width="1.51"/><path d="M1593,-83L1519,80L1670,-47Z" fill="#96a2ae" stroke="#96a2ae" stroke-width="1.51"/><path d="M1582,238L1629,237L1685,127Z" fill="#7a97ae" stroke="#7a97ae" stroke-width="1.51"/><path d="M1519,80L1582,238L1685,127Z" fill="#849caf" stroke="#849caf" stroke-width="1.51"/><path d="M1574,556L1555,772L1643,592Z" fill="#307db4" stroke="#307db4" stroke-width="1.51"/><path d="M1636,331L1520,307L1664,454Z" fill="#598eb1" stroke="#598eb1" stroke-width="1.51"/><path d="M1520,307L1512,523L1664,454Z" fill="#4e8db4" stroke="#4e8db4" stroke-width="1.51"/><path d="M1512,523L1574,556L1664,454Z" fill="#3f88b4" stroke="#3f88b4" stroke-width="1.51"/><path d="M1629,237L1582,238L1636,331Z" fill="#6d93af" stroke="#6d93af" stroke-width="1.51"/><path d="M1582,238L1520,307L1636,331Z" fill="#6795b1" stroke="#6795b1" stroke-width="1.51"/><path d="M1423,610L1555,772L1574,556Z" fill="#2d82b6" stroke="#2d82b6" stroke-width="1.51"/><path d="M1394,429L1512,523L1520,307Z" fill="#4f96b7" stroke="#4f96b7" stroke-width="1.51"/><path d="M1449,313L1394,429L1520,307Z" fill="#5a9cb6" stroke="#5a9cb6" stroke-width="1.51"/><path d="M1458,1173L1536,1244L1540,1103Z" fill="#234998" stroke="#234998" stroke-width="1.51"/><path d="M1519,80L1408,223L1582,238Z" fill="#7ea2b2" stroke="#7ea2b2" stroke-width="1.51"/><path d="M1550,-140L1374,-87L1593,-83Z" fill="#9bacb6" stroke="#9bacb6" stroke-width="1.51"/><path d="M1374,-87L1519,80L1593,-83Z" fill="#98abb1" stroke="#98abb1" stroke-width="1.51"/><path d="M1423,610L1386,735L1555,772Z" fill="#2682b8" stroke="#2682b8" stroke-width="1.51"/><path d="M1512,523L1423,610L1574,556Z" fill="#358bb8" stroke="#358bb8" stroke-width="1.51"/><path d="M1408,223L1520,307L1582,238Z" fill="#6f9db3" stroke="#6f9db3" stroke-width="1.51"/><path d="M1531,956L1458,955L1540,1103Z" fill="#2559a6" stroke="#2559a6" stroke-width="1.51"/><path d="M1374,-87L1371,75L1519,80Z" fill="#93b0b4" stroke="#93b0b4" stroke-width="1.51"/><path d="M1406,-169L1374,-87L1550,-140Z" fill="#9db2bb" stroke="#9db2bb" stroke-width="1.51"/><path d="M1402,903L1520,913L1555,772Z" fill="#236bae" stroke="#236bae" stroke-width="1.51"/><path d="M1386,735L1402,903L1555,772Z" fill="#2377b4" stroke="#2377b4" stroke-width="1.51"/><path d="M1408,223L1449,313L1520,307Z" fill="#6aa0b5" stroke="#6aa0b5" stroke-width="1.51"/><path d="M1458,955L1458,1173L1540,1103Z" fill="#2754a3" stroke="#2754a3" stroke-width="1.51"/><path d="M1371,75L1408,223L1519,80Z" fill="#88abb4" stroke="#88abb4" stroke-width="1.51"/><path d="M1458,1173L1432,1256L1536,1244Z" fill="#1f4891" stroke="#1f4891" stroke-width="1.51"/><path d="M1520,913L1458,955L1531,956Z" fill="#2360a9" stroke="#2360a9" stroke-width="1.51"/><path d="M1402,903L1458,955L1520,913Z" fill="#2366ac" stroke="#2366ac" stroke-width="1.51"/><path d="M1458,955L1259,1009L1458,1173Z" fill="#285ea9" stroke="#285ea9" stroke-width="1.51"/><path d="M1394,429L1423,610L1512,523Z" fill="#3b93ba" stroke="#3b93ba" stroke-width="1.51"/><path d="M1329,-47L1371,75L1374,-87Z" fill="#98b8b6" stroke="#98b8b6" stroke-width="1.51"/><path d="M1386,735L1322,758L1402,903Z" fill="#237eb7" stroke="#237eb7" stroke-width="1.51"/><path d="M1394,429L1295,580L1423,610Z" fill="#3599bd" stroke="#3599bd" stroke-width="1.51"/><path d="M1402,903L1259,1009L1458,955Z" fill="#256aae" stroke="#256aae" stroke-width="1.51"/><path d="M1259,1009L1293,1171L1458,1173Z" fill="#2a5ca7" stroke="#2a5ca7" stroke-width="1.51"/><path d="M1293,1171L1432,1256L1458,1173Z" fill="#235198" stroke="#235198" stroke-width="1.51"/><path d="M1408,223L1239,335L1449,313Z" fill="#68a8b9" stroke="#68a8b9" stroke-width="1.51"/><path d="M1239,335L1394,429L1449,313Z" fill="#58a4ba" stroke="#58a4ba" stroke-width="1.51"/><path d="M1371,75L1299,81L1408,223Z" fill="#89b2b7" stroke="#89b2b7" stroke-width="1.51"/><path d="M1242,252L1239,335L1408,223Z" fill="#6dafbb" stroke="#6dafbb" stroke-width="1.51"/><path d="M1295,580L1386,735L1423,610Z" fill="#2c90bd" stroke="#2c90bd" stroke-width="1.51"/><path d="M1293,1171L1246,1274L1432,1256Z" fill="#215495" stroke="#215495" stroke-width="1.51"/><path d="M923,1271L765,1283L1068,1303Z" fill="#366992" stroke="#366992" stroke-width="1.51"/><path d="M1295,580L1322,758L1386,735Z" fill="#268ebd" stroke="#268ebd" stroke-width="1.51"/><path d="M1239,335L1249,428L1394,429Z" fill="#52a8be" stroke="#52a8be" stroke-width="1.51"/><path d="M1249,428L1295,580L1394,429Z" fill="#43a1be" stroke="#43a1be" stroke-width="1.51"/><path d="M1322,758L1246,856L1402,903Z" fill="#227db7" stroke="#227db7" stroke-width="1.51"/><path d="M1299,81L1242,252L1408,223Z" fill="#7fb3b9" stroke="#7fb3b9" stroke-width="1.51"/><path d="M1240,-187L1374,-87L1406,-169Z" fill="#9fbdc1" stroke="#9fbdc1" stroke-width="1.51"/><path d="M1246,856L1259,1009L1402,903Z" fill="#2374b3" stroke="#2374b3" stroke-width="1.51"/><path d="M1329,-47L1299,81L1371,75Z" fill="#93b8b7" stroke="#93b8b7" stroke-width="1.51"/><path d="M1240,-187L1329,-47L1374,-87Z" fill="#9ebebe" stroke="#9ebebe" stroke-width="1.51"/><path d="M1295,580L1193,622L1322,758Z" fill="#2897c1" stroke="#2897c1" stroke-width="1.51"/><path d="M1193,622L1177,689L1322,758Z" fill="#2596c1" stroke="#2596c1" stroke-width="1.51"/><path d="M1136,-47L1299,81L1329,-47Z" fill="#98c1bb" stroke="#98c1bb" stroke-width="1.51"/><path d="M1240,-187L1136,-47L1329,-47Z" fill="#9fc5bf" stroke="#9fc5bf" stroke-width="1.51"/><path d="M1259,1009L1147,1145L1293,1171Z" fill="#2d65ab" stroke="#2d65ab" stroke-width="1.51"/><path d="M1181,836L1246,856L1322,758Z" fill="#2186bb" stroke="#2186bb" stroke-width="1.51"/><path d="M1177,689L1181,836L1322,758Z" fill="#218fbf" stroke="#218fbf" stroke-width="1.51"/><path d="M1112,65L1168,257L1242,252Z" fill="#81bebc" stroke="#81bebc" stroke-width="1.51"/><path d="M1108,498L1193,622L1249,428Z" fill="#3ca9c2" stroke="#3ca9c2" stroke-width="1.51"/><path d="M1246,856L1130,954L1259,1009Z" fill="#2779b4" stroke="#2779b4" stroke-width="1.51"/><path d="M1249,428L1193,622L1295,580Z" fill="#33a3c2" stroke="#33a3c2" stroke-width="1.51"/><path d="M1112,65L1242,252L1299,81Z" fill="#8abebc" stroke="#8abebc" stroke-width="1.51"/><path d="M1136,-47L1112,65L1299,81Z" fill="#96c5bb" stroke="#96c5bb" stroke-width="1.51"/><path d="M1147,1145L1246,1274L1293,1171Z" fill="#275e9e" stroke="#275e9e" stroke-width="1.51"/><path d="M1122,-150L1136,-47L1240,-187Z" fill="#a2cac3" stroke="#a2cac3" stroke-width="1.51"/><path d="M1168,257L1239,335L1242,252Z" fill="#6cb5be" stroke="#6cb5be" stroke-width="1.51"/><path d="M1147,1145L1198,1295L1246,1274Z" fill="#265d98" stroke="#265d98" stroke-width="1.51"/><path d="M1181,836L1130,954L1246,856Z" fill="#2881b8" stroke="#2881b8" stroke-width="1.51"/><path d="M1239,335L1125,373L1249,428Z" fill="#57b0bf" stroke="#57b0bf" stroke-width="1.51"/><path d="M1070,1041L1147,1145L1259,1009Z" fill="#316eae" stroke="#316eae" stroke-width="1.51"/><path d="M1130,954L1070,1041L1259,1009Z" fill="#2f75b1" stroke="#2f75b1" stroke-width="1.51"/><path d="M1069,-210L1122,-150L1240,-187Z" fill="#a5cdc8" stroke="#a5cdc8" stroke-width="1.51"/><path d="M1125,373L1108,498L1249,428Z" fill="#4fafc0" stroke="#4fafc0" stroke-width="1.51"/><path d="M1168,257L1125,373L1239,335Z" fill="#64b4be" stroke="#64b4be" stroke-width="1.51"/><path d="M1177,689L1070,729L1181,836Z" fill="#2796c0" stroke="#2796c0" stroke-width="1.51"/><path d="M1108,498L1069,507L1193,622Z" fill="#3aabc3" stroke="#3aabc3" stroke-width="1.51"/><path d="M1147,1145L1068,1303L1198,1295Z" fill="#2a6097" stroke="#2a6097" stroke-width="1.51"/><path d="M1112,65L987,255L1168,257Z" fill="#83c3bd" stroke="#83c3bd" stroke-width="1.51"/><path d="M1070,729L1177,689L1193,622Z" fill="#2d9cc2" stroke="#2d9cc2" stroke-width="1.51"/><path d="M986,598L1070,729L1193,622Z" fill="#33a3c2" stroke="#33a3c2" stroke-width="1.51"/><path d="M1069,507L986,598L1193,622Z" fill="#39aac3" stroke="#39aac3" stroke-width="1.51"/><path d="M1011,818L1130,954L1181,836Z" fill="#2d88b9" stroke="#2d88b9" stroke-width="1.51"/><path d="M1070,729L1011,818L1181,836Z" fill="#2d93be" stroke="#2d93be" stroke-width="1.51"/><path d="M1007,69L987,255L1112,65Z" fill="#90cbbc" stroke="#90cbbc" stroke-width="1.51"/><path d="M369,-173L717,-152L884,-221Z" fill="#c1e6c4" stroke="#c1e6c4" stroke-width="1.51"/><path d="M987,255L1125,373L1168,257Z" fill="#6cbcbe" stroke="#6cbcbe" stroke-width="1.51"/><path d="M1069,507L1108,498L1125,373Z" fill="#4cb1c1" stroke="#4cb1c1" stroke-width="1.51"/><path d="M987,255L1006,368L1125,373Z" fill="#65bdbf" stroke="#65bdbf" stroke-width="1.51"/><path d="M1122,-150L1006,-38L1136,-47Z" fill="#a3cfbe" stroke="#a3cfbe" stroke-width="1.51"/><path d="M1006,-38L1112,65L1136,-47Z" fill="#9ecdbb" stroke="#9ecdbb" stroke-width="1.51"/><path d="M1070,1041L1002,1127L1147,1145Z" fill="#3870ad" stroke="#3870ad" stroke-width="1.51"/><path d="M1002,1127L1068,1303L1147,1145Z" fill="#3268a1" stroke="#3268a1" stroke-width="1.51"/><path d="M1006,368L1069,507L1125,373Z" fill="#55b6c1" stroke="#55b6c1" stroke-width="1.51"/><path d="M1006,-38L1007,69L1112,65Z" fill="#9bcebc" stroke="#9bcebc" stroke-width="1.51"/><path d="M1011,818L1070,1041L1130,954Z" fill="#3281b5" stroke="#3281b5" stroke-width="1.51"/><path d="M1069,-210L1006,-38L1122,-150Z" fill="#a6d1c4" stroke="#a6d1c4" stroke-width="1.51"/><path d="M1011,818L879,951L1070,1041Z" fill="#3687b6" stroke="#3687b6" stroke-width="1.51"/><path d="M892,195L987,255L1007,69Z" fill="#8bcebd" stroke="#8bcebd" stroke-width="1.51"/><path d="M919,831L879,951L1011,818Z" fill="#3a92ba" stroke="#3a92ba" stroke-width="1.51"/><path d="M1002,1127L923,1271L1068,1303Z" fill="#33699b" stroke="#33699b" stroke-width="1.51"/><path d="M1006,368L933,517L1069,507Z" fill="#4fb8c2" stroke="#4fb8c2" stroke-width="1.51"/><path d="M933,517L986,598L1069,507Z" fill="#40b3c4" stroke="#40b3c4" stroke-width="1.51"/><path d="M884,-221L1006,-38L1069,-210Z" fill="#a9d7c7" stroke="#a9d7c7" stroke-width="1.51"/><path d="M926,711L1011,818L1070,729Z" fill="#319ec1" stroke="#319ec1" stroke-width="1.51"/><path d="M986,598L926,711L1070,729Z" fill="#35a6c3" stroke="#35a6c3" stroke-width="1.51"/><path d="M879,951L1002,1127L1070,1041Z" fill="#3b7cb1" stroke="#3b7cb1" stroke-width="1.51"/><path d="M369,-173L625,-130L717,-152Z" fill="#c9e9c0" stroke="#c9e9c0" stroke-width="1.51"/><path d="M879,951L912,1145L1002,1127Z" fill="#417aaf" stroke="#417aaf" stroke-width="1.51"/><path d="M912,1145L923,1271L1002,1127Z" fill="#3c70a3" stroke="#3c70a3" stroke-width="1.51"/><path d="M884,-221L852,-36L1006,-38Z" fill="#abdac0" stroke="#abdac0" stroke-width="1.51"/><path d="M987,255L872,296L1006,368Z" fill="#6fc4bf" stroke="#6fc4bf" stroke-width="1.51"/><path d="M872,296L933,517L1006,368Z" fill="#5fbfc0" stroke="#5fbfc0" stroke-width="1.51"/><path d="M884,98L892,195L1007,69Z" fill="#95d2bc" stroke="#95d2bc" stroke-width="1.51"/><path d="M1006,-38L852,-36L1007,69Z" fill="#a1d5bc" stroke="#a1d5bc" stroke-width="1.51"/><path d="M852,-36L884,98L1007,69Z" fill="#9fd5bb" stroke="#9fd5bb" stroke-width="1.51"/><path d="M926,711L919,831L1011,818Z" fill="#369dbf" stroke="#369dbf" stroke-width="1.51"/><path d="M872,296L786,445L933,517Z" fill="#63c0c0" stroke="#63c0c0" stroke-width="1.51"/><path d="M933,517L898,567L986,598Z" fill="#43b5c4" stroke="#43b5c4" stroke-width="1.51"/><path d="M898,567L926,711L986,598Z" fill="#3fafc3" stroke="#3fafc3" stroke-width="1.51"/><path d="M892,195L872,296L987,255Z" fill="#7fcabe" stroke="#7fcabe" stroke-width="1.51"/><path d="M744,978L728,1104L879,951Z" fill="#5187b0" stroke="#5187b0" stroke-width="1.51"/><path d="M852,-36L801,50L884,98Z" fill="#a5d8ba" stroke="#a5d8ba" stroke-width="1.51"/><path d="M730,578L757,749L898,567Z" fill="#52b3c1" stroke="#52b3c1" stroke-width="1.51"/><path d="M879,951L728,1104L912,1145Z" fill="#4c7eae" stroke="#4c7eae" stroke-width="1.51"/><path d="M912,1145L765,1283L923,1271Z" fill="#406f99" stroke="#406f99" stroke-width="1.51"/><path d="M757,749L919,831L926,711Z" fill="#43a3bf" stroke="#43a3bf" stroke-width="1.51"/><path d="M898,567L757,749L926,711Z" fill="#47adc1" stroke="#47adc1" stroke-width="1.51"/><path d="M786,445L898,567L933,517Z" fill="#53bbc2" stroke="#53bbc2" stroke-width="1.51"/><path d="M717,-152L852,-36L884,-221Z" fill="#b4dec2" stroke="#b4dec2" stroke-width="1.51"/><path d="M752,816L879,951L919,831Z" fill="#4696b9" stroke="#4696b9" stroke-width="1.51"/><path d="M757,749L752,816L919,831Z" fill="#4ba0bc" stroke="#4ba0bc" stroke-width="1.51"/><path d="M728,1104L765,1283L912,1145Z" fill="#4c75a2" stroke="#4c75a2" stroke-width="1.51"/><path d="M756,307L786,445L872,296Z" fill="#73c7bd" stroke="#73c7bd" stroke-width="1.51"/><path d="M801,50L741,242L884,98Z" fill="#9dd6ba" stroke="#9dd6ba" stroke-width="1.51"/><path d="M884,98L741,242L892,195Z" fill="#93d2bb" stroke="#93d2bb" stroke-width="1.51"/><path d="M741,242L872,296L892,195Z" fill="#86cdbc" stroke="#86cdbc" stroke-width="1.51"/><path d="M786,445L730,578L898,567Z" fill="#57bcc2" stroke="#57bcc2" stroke-width="1.51"/><path d="M752,816L744,978L879,951Z" fill="#4e91b5" stroke="#4e91b5" stroke-width="1.51"/><path d="M741,242L756,307L872,296Z" fill="#82ccbc" stroke="#82ccbc" stroke-width="1.51"/><path d="M716,-17L801,50L852,-36Z" fill="#addcb9" stroke="#addcb9" stroke-width="1.51"/><path d="M717,-152L716,-17L852,-36Z" fill="#b4dfbb" stroke="#b4dfbb" stroke-width="1.51"/><path d="M90,1217L25,1224L229,1223Z" fill="#8b8896" stroke="#8b8896" stroke-width="1.51"/><path d="M369,-173L459,-128L625,-130Z" fill="#d3edbe" stroke="#d3edbe" stroke-width="1.51"/><path d="M587,36L614,196L716,-17Z" fill="#b1dfb7" stroke="#b1dfb7" stroke-width="1.51"/><path d="M730,578L660,619L757,749Z" fill="#5ab5c0" stroke="#5ab5c0" stroke-width="1.51"/><path d="M728,1104L668,1289L765,1283Z" fill="#507499" stroke="#507499" stroke-width="1.51"/><path d="M646,517L730,578L786,445Z" fill="#63c1c0" stroke="#63c1c0" stroke-width="1.51"/><path d="M756,307L663,385L786,445Z" fill="#75c8bd" stroke="#75c8bd" stroke-width="1.51"/><path d="M614,196L741,242L801,50Z" fill="#9fd8b9" stroke="#9fd8b9" stroke-width="1.51"/><path d="M716,-17L614,196L801,50Z" fill="#aadcb8" stroke="#aadcb8" stroke-width="1.51"/><path d="M643,830L636,964L744,978Z" fill="#5a94b3" stroke="#5a94b3" stroke-width="1.51"/><path d="M643,830L744,978L752,816Z" fill="#5699b6" stroke="#5699b6" stroke-width="1.51"/><path d="M663,385L646,517L786,445Z" fill="#6fc6be" stroke="#6fc6be" stroke-width="1.51"/><path d="M603,1100L668,1289L728,1104Z" fill="#5a7ba2" stroke="#5a7ba2" stroke-width="1.51"/><path d="M636,964L728,1104L744,978Z" fill="#5989af" stroke="#5989af" stroke-width="1.51"/><path d="M660,619L590,730L757,749Z" fill="#5cb2be" stroke="#5cb2be" stroke-width="1.51"/><path d="M625,-130L716,-17L717,-152Z" fill="#bbe3bc" stroke="#bbe3bc" stroke-width="1.51"/><path d="M643,830L752,816L757,749Z" fill="#55a4bb" stroke="#55a4bb" stroke-width="1.51"/><path d="M590,730L643,830L757,749Z" fill="#5baabc" stroke="#5baabc" stroke-width="1.51"/><path d="M741,242L663,385L756,307Z" fill="#82cdbc" stroke="#82cdbc" stroke-width="1.51"/><path d="M636,964L603,1100L728,1104Z" fill="#5e86ac" stroke="#5e86ac" stroke-width="1.51"/><path d="M614,196L663,385L741,242Z" fill="#8dd2ba" stroke="#8dd2ba" stroke-width="1.51"/><path d="M610,-15L587,36L716,-17Z" fill="#b8e2b6" stroke="#b8e2b6" stroke-width="1.51"/><path d="M603,1100L537,1207L668,1289Z" fill="#607b9d" stroke="#607b9d" stroke-width="1.51"/><path d="M625,-130L610,-15L716,-17Z" fill="#bce3b7" stroke="#bce3b7" stroke-width="1.51"/><path d="M646,517L660,619L730,578Z" fill="#62bebf" stroke="#62bebf" stroke-width="1.51"/><path d="M483,243L481,336L614,196Z" fill="#a3dab8" stroke="#a3dab8" stroke-width="1.51"/><path d="M614,196L481,336L663,385Z" fill="#92d4ba" stroke="#92d4ba" stroke-width="1.51"/><path d="M457,457L646,517L663,385Z" fill="#7ccabd" stroke="#7ccabd" stroke-width="1.51"/><path d="M537,1207L408,1241L668,1289Z" fill="#647a94" stroke="#647a94" stroke-width="1.51"/><path d="M462,885L636,964L643,830Z" fill="#689db4" stroke="#689db4" stroke-width="1.51"/><path d="M646,517L461,589L660,619Z" fill="#6fc1be" stroke="#6fc1be" stroke-width="1.51"/><path d="M481,336L457,457L663,385Z" fill="#8cd0bb" stroke="#8cd0bb" stroke-width="1.51"/><path d="M461,589L590,730L660,619Z" fill="#6fbcbe" stroke="#6fbcbe" stroke-width="1.51"/><path d="M526,1137L537,1207L603,1100Z" fill="#6b81a4" stroke="#6b81a4" stroke-width="1.51"/><path d="M457,953L603,1100L636,964Z" fill="#6b90ae" stroke="#6b90ae" stroke-width="1.51"/><path d="M457,457L461,589L646,517Z" fill="#7ec9be" stroke="#7ec9be" stroke-width="1.51"/><path d="M490,731L462,885L590,730Z" fill="#73afba" stroke="#73afba" stroke-width="1.51"/><path d="M462,885L457,953L636,964Z" fill="#7199b1" stroke="#7199b1" stroke-width="1.51"/><path d="M590,730L462,885L643,830Z" fill="#6ba8b8" stroke="#6ba8b8" stroke-width="1.51"/><path d="M461,589L490,731L590,730Z" fill="#76bbbd" stroke="#76bbbd" stroke-width="1.51"/><path d="M587,36L461,61L614,196Z" fill="#b8e2b6" stroke="#b8e2b6" stroke-width="1.51"/><path d="M459,-86L610,-15L625,-130Z" fill="#c7e8b9" stroke="#c7e8b9" stroke-width="1.51"/><path d="M457,953L526,1137L603,1100Z" fill="#708aab" stroke="#708aab" stroke-width="1.51"/><path d="M461,61L483,243L614,196Z" fill="#b4e1b7" stroke="#b4e1b7" stroke-width="1.51"/><path d="M459,-128L459,-86L625,-130Z" fill="#ceecbc" stroke="#ceecbc" stroke-width="1.51"/><path d="M459,-86L587,36L610,-15Z" fill="#c5e7b5" stroke="#c5e7b5" stroke-width="1.51"/><path d="M459,-86L461,61L587,36Z" fill="#c8e8b5" stroke="#c8e8b5" stroke-width="1.51"/><path d="M461,61L368,191L483,243Z" fill="#bee5b6" stroke="#bee5b6" stroke-width="1.51"/><path d="M461,589L419,705L490,731Z" fill="#7ebebc" stroke="#7ebebc" stroke-width="1.51"/><path d="M457,953L352,1163L526,1137Z" fill="#7b8ba9" stroke="#7b8ba9" stroke-width="1.51"/><path d="M526,1137L408,1241L537,1207Z" fill="#6f809c" stroke="#6f809c" stroke-width="1.51"/><path d="M359,959L352,1163L457,953Z" fill="#8295ab" stroke="#8295ab" stroke-width="1.51"/><path d="M352,1163L408,1241L526,1137Z" fill="#78839e" stroke="#78839e" stroke-width="1.51"/><path d="M459,-86L343,-53L461,61Z" fill="#d3eeb3" stroke="#d3eeb3" stroke-width="1.51"/><path d="M343,-53L370,63L461,61Z" fill="#d2edb3" stroke="#d2edb3" stroke-width="1.51"/><path d="M370,63L368,191L461,61Z" fill="#c9eab4" stroke="#c9eab4" stroke-width="1.51"/><path d="M457,457L362,486L461,589Z" fill="#8ccebc" stroke="#8ccebc" stroke-width="1.51"/><path d="M419,705L376,905L462,885Z" fill="#80acb6" stroke="#80acb6" stroke-width="1.51"/><path d="M340,329L457,457L481,336Z" fill="#9cd7b9" stroke="#9cd7b9" stroke-width="1.51"/><path d="M340,329L481,336L483,243Z" fill="#a5dbb8" stroke="#a5dbb8" stroke-width="1.51"/><path d="M419,705L462,885L490,731Z" fill="#7bb3ba" stroke="#7bb3ba" stroke-width="1.51"/><path d="M368,191L340,329L483,243Z" fill="#b3e0b7" stroke="#b3e0b7" stroke-width="1.51"/><path d="M267,1096L352,1163L359,959Z" fill="#8791a9" stroke="#8791a9" stroke-width="1.51"/><path d="M340,329L362,486L457,457Z" fill="#9bd6ba" stroke="#9bd6ba" stroke-width="1.51"/><path d="M459,-128L369,-173L459,-86Z" fill="#d8f0bb" stroke="#d8f0bb" stroke-width="1.51"/><path d="M334,566L419,705L461,589Z" fill="#88c6bc" stroke="#88c6bc" stroke-width="1.51"/><path d="M362,486L334,566L461,589Z" fill="#8ecebd" stroke="#8ecebd" stroke-width="1.51"/><path d="M376,905L457,953L462,885Z" fill="#7da0b1" stroke="#7da0b1" stroke-width="1.51"/><path d="M369,-173L343,-53L459,-86Z" fill="#dcf1b8" stroke="#dcf1b8" stroke-width="1.51"/><path d="M376,905L359,959L457,953Z" fill="#819eb0" stroke="#819eb0" stroke-width="1.51"/><path d="M131,-175L234,-131L369,-173Z" fill="#e8f6be" stroke="#e8f6be" stroke-width="1.51"/><path d="M247,705L376,905L419,705Z" fill="#89b7ba" stroke="#89b7ba" stroke-width="1.51"/><path d="M334,566L247,705L419,705Z" fill="#8ec4bc" stroke="#8ec4bc" stroke-width="1.51"/><path d="M247,705L209,908L376,905Z" fill="#8dafb5" stroke="#8dafb5" stroke-width="1.51"/><path d="M352,1163L229,1223L408,1241Z" fill="#7e8499" stroke="#7e8499" stroke-width="1.51"/><path d="M232,613L247,705L334,566Z" fill="#94c9bc" stroke="#94c9bc" stroke-width="1.51"/><path d="M217,1032L267,1096L359,959Z" fill="#8a97ab" stroke="#8a97ab" stroke-width="1.51"/><path d="M340,329L235,426L362,486Z" fill="#a2d8b9" stroke="#a2d8b9" stroke-width="1.51"/><path d="M273,303L340,329L368,191Z" fill="#b5e1b7" stroke="#b5e1b7" stroke-width="1.51"/><path d="M225,203L273,303L368,191Z" fill="#bfe5b5" stroke="#bfe5b5" stroke-width="1.51"/><path d="M234,-131L343,-53L369,-173Z" fill="#e2f4b9" stroke="#e2f4b9" stroke-width="1.51"/><path d="M343,-53L263,-15L370,63Z" fill="#daf0b3" stroke="#daf0b3" stroke-width="1.51"/><path d="M263,-15L268,89L370,63Z" fill="#d7efb3" stroke="#d7efb3" stroke-width="1.51"/><path d="M268,89L368,191L370,63Z" fill="#cdebb4" stroke="#cdebb4" stroke-width="1.51"/><path d="M209,908L359,959L376,905Z" fill="#88a3b0" stroke="#88a3b0" stroke-width="1.51"/><path d="M268,89L225,203L368,191Z" fill="#cbeab4" stroke="#cbeab4" stroke-width="1.51"/><path d="M235,426L334,566L362,486Z" fill="#9ad4bb" stroke="#9ad4bb" stroke-width="1.51"/><path d="M209,908L217,1032L359,959Z" fill="#8c9eae" stroke="#8c9eae" stroke-width="1.51"/><path d="M273,303L235,426L340,329Z" fill="#abddb7" stroke="#abddb7" stroke-width="1.51"/><path d="M267,1096L229,1223L352,1163Z" fill="#8689a1" stroke="#8689a1" stroke-width="1.51"/><path d="M235,426L232,613L334,566Z" fill="#98d3bc" stroke="#98d3bc" stroke-width="1.51"/><path d="M234,-131L263,-15L343,-53Z" fill="#e2f4b4" stroke="#e2f4b4" stroke-width="1.51"/><path d="M124,430L78,566L232,613Z" fill="#a1d5bc" stroke="#a1d5bc" stroke-width="1.51"/><path d="M124,430L232,613L235,426Z" fill="#a2d7bb" stroke="#a2d7bb" stroke-width="1.51"/><path d="M94,745L209,908L247,705Z" fill="#94b9b8" stroke="#94b9b8" stroke-width="1.51"/><path d="M234,-131L120,-35L263,-15Z" fill="#e6f6b3" stroke="#e6f6b3" stroke-width="1.51"/><path d="M107,1149L229,1223L267,1096Z" fill="#8c8ba1" stroke="#8c8ba1" stroke-width="1.51"/><path d="M263,-15L120,-35L268,89Z" fill="#dff2b2" stroke="#dff2b2" stroke-width="1.51"/><path d="M225,203L82,237L273,303Z" fill="#c3e6b5" stroke="#c3e6b5" stroke-width="1.51"/><path d="M82,237L80,389L273,303Z" fill="#bce3b6" stroke="#bce3b6" stroke-width="1.51"/><path d="M124,430L235,426L273,303Z" fill="#addcb8" stroke="#addcb8" stroke-width="1.51"/><path d="M80,389L124,430L273,303Z" fill="#b1dfb7" stroke="#b1dfb7" stroke-width="1.51"/><path d="M217,1032L107,1149L267,1096Z" fill="#9091a8" stroke="#9091a8" stroke-width="1.51"/><path d="M68,93L225,203L268,89Z" fill="#d6efb3" stroke="#d6efb3" stroke-width="1.51"/><path d="M120,-35L68,93L268,89Z" fill="#e0f3b3" stroke="#e0f3b3" stroke-width="1.51"/><path d="M94,745L102,910L209,908Z" fill="#96b1b4" stroke="#96b1b4" stroke-width="1.51"/><path d="M232,613L94,745L247,705Z" fill="#97c5bb" stroke="#97c5bb" stroke-width="1.51"/><path d="M102,910L83,996L209,908Z" fill="#95a4af" stroke="#95a4af" stroke-width="1.51"/><path d="M209,908L83,996L217,1032Z" fill="#92a0ad" stroke="#92a0ad" stroke-width="1.51"/><path d="M68,93L82,237L225,203Z" fill="#d3edb3" stroke="#d3edb3" stroke-width="1.51"/><path d="M78,566L94,745L232,613Z" fill="#9dcbbb" stroke="#9dcbbb" stroke-width="1.51"/><path d="M131,-175L120,-35L234,-131Z" fill="#ebf7b8" stroke="#ebf7b8" stroke-width="1.51"/><path d="M107,1149L90,1217L229,1223Z" fill="#8c899a" stroke="#8c899a" stroke-width="1.51"/><path d="M83,996L107,1149L217,1032Z" fill="#9496aa" stroke="#9496aa" stroke-width="1.51"/><path d="M-54,436L78,566L80,389Z" fill="#afdcbd" stroke="#afdcbd" stroke-width="1.51"/><path d="M68,93L30,222L82,237Z" fill="#d5eeb5" stroke="#d5eeb5" stroke-width="1.51"/><path d="M78,566L25,596L94,745Z" fill="#a2cdbc" stroke="#a2cdbc" stroke-width="1.51"/><path d="M25,596L-22,695L94,745Z" fill="#a0c9be" stroke="#a0c9be" stroke-width="1.51"/><path d="M94,745L26,884L102,910Z" fill="#9bb3b4" stroke="#9bb3b4" stroke-width="1.51"/><path d="M83,996L22,1006L107,1149Z" fill="#9899ab" stroke="#9899ab" stroke-width="1.51"/><path d="M22,1006L-20,1102L107,1149Z" fill="#9895ab" stroke="#9895ab" stroke-width="1.51"/><path d="M15,41L68,93L120,-35Z" fill="#e6f5b3" stroke="#e6f5b3" stroke-width="1.51"/><path d="M29,-30L15,41L120,-35Z" fill="#ebf7b3" stroke="#ebf7b3" stroke-width="1.51"/><path d="M80,389L78,566L124,430Z" fill="#addbba" stroke="#addbba" stroke-width="1.51"/><path d="M29,-30L120,-35L131,-175Z" fill="#eef8b5" stroke="#eef8b5" stroke-width="1.51"/><path d="M-36,-195L29,-30L131,-175Z" fill="#f3fabd" stroke="#f3fabd" stroke-width="1.51"/><path d="M30,222L80,389L82,237Z" fill="#c5e7b7" stroke="#c5e7b7" stroke-width="1.51"/><path d="M30,222L-60,353L80,389Z" fill="#c0e5ba" stroke="#c0e5ba" stroke-width="1.51"/><path d="M26,884L22,1006L83,996Z" fill="#99a3b0" stroke="#99a3b0" stroke-width="1.51"/><path d="M26,884L83,996L102,910Z" fill="#99a7b0" stroke="#99a7b0" stroke-width="1.51"/><path d="M25,1224L90,1217L107,1149Z" fill="#908a9b" stroke="#908a9b" stroke-width="1.51"/><path d="M-20,1102L25,1224L107,1149Z" fill="#948ea3" stroke="#948ea3" stroke-width="1.51"/><path d="M-22,695L26,884L94,745Z" fill="#9dbdbb" stroke="#9dbdbb" stroke-width="1.51"/><path d="M-54,436L25,596L78,566Z" fill="#a8d8c0" stroke="#a8d8c0" stroke-width="1.51"/><path d="M-60,353L-54,436L80,389Z" fill="#b8e0be" stroke="#b8e0be" stroke-width="1.51"/><path d="M-22,695L-120,841L26,884Z" fill="#9ebabe" stroke="#9ebabe" stroke-width="1.51"/><path d="M15,41L-127,83L30,222Z" fill="#e1f4ba" stroke="#e1f4ba" stroke-width="1.51"/><path d="M15,41L30,222L68,93Z" fill="#dff2b6" stroke="#dff2b6" stroke-width="1.51"/><path d="M-124,453L-137,603L-54,436Z" fill="#afdbc7" stroke="#afdbc7" stroke-width="1.51"/><path d="M-102,710L-120,841L-22,695Z" fill="#a0c3c4" stroke="#a0c3c4" stroke-width="1.51"/><path d="M-20,1102L-118,1134L25,1224Z" fill="#978fa9" stroke="#978fa9" stroke-width="1.51"/><path d="M-118,1134L-131,1237L25,1224Z" fill="#938ca4" stroke="#938ca4" stroke-width="1.51"/><path d="M-54,436L-137,603L25,596Z" fill="#a9d8c5" stroke="#a9d8c5" stroke-width="1.51"/><path d="M-97,1006L22,1006L26,884Z" fill="#9aa3b4" stroke="#9aa3b4" stroke-width="1.51"/><path d="M-120,841L-97,1006L26,884Z" fill="#9cacba" stroke="#9cacba" stroke-width="1.51"/><path d="M-135,-67L15,41L29,-30Z" fill="#eef9b8" stroke="#eef9b8" stroke-width="1.51"/><path d="M-36,-195L-135,-67L29,-30Z" fill="#f4fbc0" stroke="#f4fbc0" stroke-width="1.51"/><path d="M-176,182L-60,353L30,222Z" fill="#cdebbf" stroke="#cdebbf" stroke-width="1.51"/><path d="M-127,83L-176,182L30,222Z" fill="#def2be" stroke="#def2be" stroke-width="1.51"/><path d="M-97,1006L-20,1102L22,1006Z" fill="#9a9cb2" stroke="#9a9cb2" stroke-width="1.51"/><path d="M-137,603L-22,695L25,596Z" fill="#a5cfc3" stroke="#a5cfc3" stroke-width="1.51"/><path d="M-135,-67L-127,83L15,41Z" fill="#ecf8bd" stroke="#ecf8bd" stroke-width="1.51"/><path d="M-147,-150L-135,-67L-36,-195Z" fill="#f8fcc7" stroke="#f8fcc7" stroke-width="1.51"/><path d="M-137,603L-102,710L-22,695Z" fill="#a4cbc6" stroke="#a4cbc6" stroke-width="1.51"/><path d="M-97,1006L-118,1134L-20,1102Z" fill="#9b97b3" stroke="#9b97b3" stroke-width="1.51"/><path d="M-176,182L-171,378L-60,353Z" fill="#c7e8c5" stroke="#c7e8c5" stroke-width="1.51"/><path d="M-171,378L-124,453L-60,353Z" fill="#bae2c5" stroke="#bae2c5" stroke-width="1.51"/><path d="M-60,353L-124,453L-54,436Z" fill="#b7e0c3" stroke="#b7e0c3" stroke-width="1.51"/><path d="M-120,841L-118,1134L-97,1006Z" fill="#9ca1b9" stroke="#9ca1b9" stroke-width="1.51"/><path d="M-137,603L-120,841L-102,710Z" fill="#a2c7c8" stroke="#a2c7c8" stroke-width="1.51"/><path d="M-171,378L-137,603L-124,453Z" fill="#b2ddc9" stroke="#b2ddc9" stroke-width="1.51"/><path d="M-120,841L-131,1237L-118,1134Z" fill="#9c99b6" stroke="#9c99b6" stroke-width="1.51"/><path d="M-135,-67L-176,182L-127,83Z" fill="#eaf6c1" stroke="#eaf6c1" stroke-width="1.51"/><path d="M-171,378L-131,1237L-120,841Z" fill="#a0b9c4" stroke="#a0b9c4" stroke-width="1.51"/><path d="M-137,603L-171,378L-120,841Z" fill="#a8d2ca" stroke="#a8d2ca" stroke-width="1.51"/><path d="M-147,-150L-176,182L-135,-67Z" fill="#f2fac1" stroke="#f2fac1" stroke-width="1.51"/></svg>